<svg xmlns="http://www.w3.org/2000/svg" width="400" height="300" viewBox="0 0 400 300">
  <defs>
    <linearGradient id="sky" x1="0" y1="0" x2="0" y2="1">
      <stop offset="0%" stop-color="#020814"/>
      <stop offset="100%" stop-color="#050d28"/>
    </linearGradient>
    <linearGradient id="gnd" x1="0" y1="0" x2="0" y2="1">
      <stop offset="0%" stop-color="#1a4a1a"/>
      <stop offset="100%" stop-color="#081508"/>
    </linearGradient>
    <linearGradient id="banner" x1="0" y1="0" x2="0" y2="1">
      <stop offset="0%" stop-color="#06081a" stop-opacity="0.95"/>
      <stop offset="100%" stop-color="#020510" stop-opacity="0.98"/>
    </linearGradient>
  </defs>

  <!-- Sky -->
  <rect width="400" height="300" fill="url(#sky)"/>

  <!-- Stars -->
  <rect x="14"  y="10"  width="2" height="2" fill="#fff" opacity="0.9"/>
  <rect x="38"  y="24"  width="2" height="2" fill="#fff" opacity="0.6"/>
  <rect x="70"  y="8"   width="2" height="2" fill="#fff" opacity="0.8"/>
  <rect x="98"  y="32"  width="2" height="2" fill="#fff" opacity="0.5"/>
  <rect x="158" y="14"  width="2" height="2" fill="#fff" opacity="0.9"/>
  <rect x="194" y="22"  width="2" height="2" fill="#fff" opacity="0.6"/>
  <rect x="236" y="6"   width="2" height="2" fill="#fff" opacity="0.8"/>
  <rect x="260" y="36"  width="2" height="2" fill="#fff" opacity="0.5"/>
  <rect x="368" y="18"  width="2" height="2" fill="#fff" opacity="0.9"/>
  <rect x="388" y="8"   width="2" height="2" fill="#fff" opacity="0.7"/>
  <rect x="18"  y="52"  width="2" height="2" fill="#fff" opacity="0.5"/>
  <rect x="76"  y="60"  width="2" height="2" fill="#fff" opacity="0.6"/>
  <rect x="148" y="44"  width="2" height="2" fill="#fff" opacity="0.7"/>
  <rect x="212" y="58"  width="2" height="2" fill="#fff" opacity="0.4"/>
  <rect x="276" y="42"  width="2" height="2" fill="#fff" opacity="0.6"/>
  <rect x="352" y="50"  width="2" height="2" fill="#fff" opacity="0.5"/>
  <rect x="44"  y="76"  width="2" height="2" fill="#fff" opacity="0.4"/>
  <rect x="118" y="80"  width="2" height="2" fill="#fff" opacity="0.5"/>
  <rect x="320" y="66"  width="2" height="2" fill="#fff" opacity="0.6"/>
  <rect x="394" y="56"  width="2" height="2" fill="#fff" opacity="0.7"/>

  <!-- Planet (top right) -->
  <circle cx="360" cy="52" r="30" fill="#2a1040"/>
  <ellipse cx="350" cy="43" rx="11" ry="7" fill="#3c1860" opacity="0.5"/>
  <ellipse cx="364" cy="58" rx="8"  ry="5" fill="#3c1860" opacity="0.4"/>
  <ellipse cx="360" cy="52" rx="50" ry="10" fill="none" stroke="#6a3aaa" stroke-width="3" opacity="0.6"/>
  <ellipse cx="360" cy="52" rx="58" ry="13" fill="none" stroke="#4a1a8a" stroke-width="2" opacity="0.35"/>

  <!-- Zone badge -->
  <rect x="6"  y="5" width="168" height="20" fill="#000" opacity="0.6" rx="3"/>
  <rect x="8"  y="7" width="4"   height="16" fill="#aaffaa" rx="1"/>
  <text x="17" y="19" font-family="monospace" font-size="10" fill="#aaffaa" letter-spacing="1">ZONE 1: ASTEROID BELT</text>

  <!-- Score HUD -->
  <rect x="298" y="5" width="96" height="38" fill="#000" opacity="0.6" rx="3"/>
  <text x="306" y="20" font-family="monospace" font-size="10" fill="#aaaaaa" letter-spacing="1">SCORE</text>
  <text x="306" y="36" font-family="monospace" font-size="14" font-weight="bold" fill="#ffdd00" letter-spacing="2">024680</text>

  <!-- Ground strip -->
  <rect x="0" y="236" width="400" height="12" fill="url(#gnd)"/>
  <rect x="0" y="236" width="400" height="3"  fill="#2aaa2a"/>
  <rect x="0" y="239" width="400" height="2"  fill="#3acc3a" opacity="0.35"/>
  <rect x="22"  y="239" width="16" height="4" fill="#122212"/>
  <rect x="82"  y="239" width="12" height="4" fill="#122212"/>
  <rect x="160" y="239" width="18" height="4" fill="#122212"/>
  <rect x="240" y="239" width="14" height="4" fill="#122212"/>
  <rect x="320" y="239" width="16" height="4" fill="#122212"/>
  <rect x="372" y="239" width="12" height="4" fill="#122212"/>

  <!-- Astronaut shadow -->
  <ellipse cx="83" cy="238" rx="40" ry="4" fill="#000" opacity="0.28"/>

  <!-- Speed lines (motion blur, left of astronaut) -->
  <rect x="3"  y="134" width="24" height="2" fill="#fff" opacity="0.10"/>
  <rect x="1"  y="148" width="28" height="2" fill="#fff" opacity="0.08"/>
  <rect x="4"  y="162" width="22" height="2" fill="#fff" opacity="0.11"/>
  <rect x="2"  y="176" width="26" height="2" fill="#fff" opacity="0.07"/>

  <!-- ════════════════════════════════════════════════════ -->
  <!-- ASTRONAUT  run_a frame  (ax=30, ay=55, px=15)       -->
  <!--   Palette: W=#ffffff  b=#1166cc  B=#44aaff          -->
  <!--            S=#cccccc  D=#555555                     -->
  <!-- ════════════════════════════════════════════════════ -->

  <!-- Row 0  [_,W,W,W,W,W,W,_] -->
  <rect x="45"  y="55"  width="15" height="15" fill="#ffffff"/>
  <rect x="60"  y="55"  width="15" height="15" fill="#ffffff"/>
  <rect x="75"  y="55"  width="15" height="15" fill="#ffffff"/>
  <rect x="90"  y="55"  width="15" height="15" fill="#ffffff"/>
  <rect x="105" y="55"  width="15" height="15" fill="#ffffff"/>
  <rect x="120" y="55"  width="15" height="15" fill="#ffffff"/>

  <!-- Row 1  [W,W,W,W,W,W,W,W] -->
  <rect x="30"  y="70"  width="15" height="15" fill="#ffffff"/>
  <rect x="45"  y="70"  width="15" height="15" fill="#ffffff"/>
  <rect x="60"  y="70"  width="15" height="15" fill="#ffffff"/>
  <rect x="75"  y="70"  width="15" height="15" fill="#ffffff"/>
  <rect x="90"  y="70"  width="15" height="15" fill="#ffffff"/>
  <rect x="105" y="70"  width="15" height="15" fill="#ffffff"/>
  <rect x="120" y="70"  width="15" height="15" fill="#ffffff"/>
  <rect x="135" y="70"  width="15" height="15" fill="#ffffff"/>

  <!-- Row 2  [W,b,B,B,B,B,b,W] -->
  <rect x="30"  y="85"  width="15" height="15" fill="#ffffff"/>
  <rect x="45"  y="85"  width="15" height="15" fill="#1166cc"/>
  <rect x="60"  y="85"  width="15" height="15" fill="#44aaff"/>
  <rect x="75"  y="85"  width="15" height="15" fill="#44aaff"/>
  <rect x="90"  y="85"  width="15" height="15" fill="#44aaff"/>
  <rect x="105" y="85"  width="15" height="15" fill="#44aaff"/>
  <rect x="120" y="85"  width="15" height="15" fill="#1166cc"/>
  <rect x="135" y="85"  width="15" height="15" fill="#ffffff"/>

  <!-- Row 3  [W,B,B,B,B,B,B,W] -->
  <rect x="30"  y="100" width="15" height="15" fill="#ffffff"/>
  <rect x="45"  y="100" width="15" height="15" fill="#44aaff"/>
  <rect x="60"  y="100" width="15" height="15" fill="#44aaff"/>
  <rect x="75"  y="100" width="15" height="15" fill="#44aaff"/>
  <rect x="90"  y="100" width="15" height="15" fill="#44aaff"/>
  <rect x="105" y="100" width="15" height="15" fill="#44aaff"/>
  <rect x="120" y="100" width="15" height="15" fill="#44aaff"/>
  <rect x="135" y="100" width="15" height="15" fill="#ffffff"/>

  <!-- Row 4  [W,b,B,B,B,B,b,W] -->
  <rect x="30"  y="115" width="15" height="15" fill="#ffffff"/>
  <rect x="45"  y="115" width="15" height="15" fill="#1166cc"/>
  <rect x="60"  y="115" width="15" height="15" fill="#44aaff"/>
  <rect x="75"  y="115" width="15" height="15" fill="#44aaff"/>
  <rect x="90"  y="115" width="15" height="15" fill="#44aaff"/>
  <rect x="105" y="115" width="15" height="15" fill="#44aaff"/>
  <rect x="120" y="115" width="15" height="15" fill="#1166cc"/>
  <rect x="135" y="115" width="15" height="15" fill="#ffffff"/>

  <!-- Row 5  [_,W,W,W,W,W,W,_] -->
  <rect x="45"  y="130" width="15" height="15" fill="#ffffff"/>
  <rect x="60"  y="130" width="15" height="15" fill="#ffffff"/>
  <rect x="75"  y="130" width="15" height="15" fill="#ffffff"/>
  <rect x="90"  y="130" width="15" height="15" fill="#ffffff"/>
  <rect x="105" y="130" width="15" height="15" fill="#ffffff"/>
  <rect x="120" y="130" width="15" height="15" fill="#ffffff"/>

  <!-- Row 6  [S,W,W,W,W,W,W,_]  left shoulder raised -->
  <rect x="30"  y="145" width="15" height="15" fill="#cccccc"/>
  <rect x="45"  y="145" width="15" height="15" fill="#ffffff"/>
  <rect x="60"  y="145" width="15" height="15" fill="#ffffff"/>
  <rect x="75"  y="145" width="15" height="15" fill="#ffffff"/>
  <rect x="90"  y="145" width="15" height="15" fill="#ffffff"/>
  <rect x="105" y="145" width="15" height="15" fill="#ffffff"/>
  <rect x="120" y="145" width="15" height="15" fill="#ffffff"/>

  <!-- Row 7  [W,W,D,W,W,D,W,S]  right arm back -->
  <rect x="30"  y="160" width="15" height="15" fill="#ffffff"/>
  <rect x="45"  y="160" width="15" height="15" fill="#ffffff"/>
  <rect x="60"  y="160" width="15" height="15" fill="#555555"/>
  <rect x="75"  y="160" width="15" height="15" fill="#ffffff"/>
  <rect x="90"  y="160" width="15" height="15" fill="#ffffff"/>
  <rect x="105" y="160" width="15" height="15" fill="#555555"/>
  <rect x="120" y="160" width="15" height="15" fill="#ffffff"/>
  <rect x="135" y="160" width="15" height="15" fill="#cccccc"/>

  <!-- Row 8  [W,W,W,W,W,W,W,W]  torso -->
  <rect x="30"  y="175" width="15" height="15" fill="#ffffff"/>
  <rect x="45"  y="175" width="15" height="15" fill="#ffffff"/>
  <rect x="60"  y="175" width="15" height="15" fill="#ffffff"/>
  <rect x="75"  y="175" width="15" height="15" fill="#ffffff"/>
  <rect x="90"  y="175" width="15" height="15" fill="#ffffff"/>
  <rect x="105" y="175" width="15" height="15" fill="#ffffff"/>
  <rect x="120" y="175" width="15" height="15" fill="#ffffff"/>
  <rect x="135" y="175" width="15" height="15" fill="#ffffff"/>

  <!-- Row 9  [_,W,S,W,W,S,W,_]  hips -->
  <rect x="45"  y="190" width="15" height="15" fill="#ffffff"/>
  <rect x="60"  y="190" width="15" height="15" fill="#cccccc"/>
  <rect x="75"  y="190" width="15" height="15" fill="#ffffff"/>
  <rect x="90"  y="190" width="15" height="15" fill="#ffffff"/>
  <rect x="105" y="190" width="15" height="15" fill="#cccccc"/>
  <rect x="120" y="190" width="15" height="15" fill="#ffffff"/>

  <!-- Row 10 [_,W,_,_,_,_,_,_]  left calf forward -->
  <rect x="45"  y="205" width="15" height="15" fill="#ffffff"/>

  <!-- Row 11 [_,S,_,_,_,_,_,_]  left foot down -->
  <rect x="45"  y="220" width="15" height="15" fill="#cccccc"/>

  <!-- ════════════════════════════════════════════════════ -->
  <!-- ASTEROID  (ax=295, ay=116, px=8)                   -->
  <!--   G=#888888  L=#bbbbbb  D=#555555                  -->
  <!-- ════════════════════════════════════════════════════ -->

  <!-- Row 0  [_,_,G,G,L,G,_,_] -->
  <rect x="311" y="116" width="8" height="8" fill="#888888"/>
  <rect x="319" y="116" width="8" height="8" fill="#888888"/>
  <rect x="327" y="116" width="8" height="8" fill="#bbbbbb"/>
  <rect x="335" y="116" width="8" height="8" fill="#888888"/>

  <!-- Row 1  [_,G,L,G,G,G,G,_] -->
  <rect x="303" y="124" width="8" height="8" fill="#888888"/>
  <rect x="311" y="124" width="8" height="8" fill="#bbbbbb"/>
  <rect x="319" y="124" width="8" height="8" fill="#888888"/>
  <rect x="327" y="124" width="8" height="8" fill="#888888"/>
  <rect x="335" y="124" width="8" height="8" fill="#888888"/>
  <rect x="343" y="124" width="8" height="8" fill="#888888"/>

  <!-- Row 2  [G,G,G,D,G,L,G,_] -->
  <rect x="295" y="132" width="8" height="8" fill="#888888"/>
  <rect x="303" y="132" width="8" height="8" fill="#888888"/>
  <rect x="311" y="132" width="8" height="8" fill="#888888"/>
  <rect x="319" y="132" width="8" height="8" fill="#555555"/>
  <rect x="327" y="132" width="8" height="8" fill="#888888"/>
  <rect x="335" y="132" width="8" height="8" fill="#bbbbbb"/>
  <rect x="343" y="132" width="8" height="8" fill="#888888"/>

  <!-- Row 3  [G,L,G,G,D,G,G,G] -->
  <rect x="295" y="140" width="8" height="8" fill="#888888"/>
  <rect x="303" y="140" width="8" height="8" fill="#bbbbbb"/>
  <rect x="311" y="140" width="8" height="8" fill="#888888"/>
  <rect x="319" y="140" width="8" height="8" fill="#888888"/>
  <rect x="327" y="140" width="8" height="8" fill="#555555"/>
  <rect x="335" y="140" width="8" height="8" fill="#888888"/>
  <rect x="343" y="140" width="8" height="8" fill="#888888"/>
  <rect x="351" y="140" width="8" height="8" fill="#888888"/>

  <!-- Row 4  [G,G,D,G,G,G,L,G] -->
  <rect x="295" y="148" width="8" height="8" fill="#888888"/>
  <rect x="303" y="148" width="8" height="8" fill="#888888"/>
  <rect x="311" y="148" width="8" height="8" fill="#555555"/>
  <rect x="319" y="148" width="8" height="8" fill="#888888"/>
  <rect x="327" y="148" width="8" height="8" fill="#888888"/>
  <rect x="335" y="148" width="8" height="8" fill="#888888"/>
  <rect x="343" y="148" width="8" height="8" fill="#bbbbbb"/>
  <rect x="351" y="148" width="8" height="8" fill="#888888"/>

  <!-- Row 5  [G,G,G,L,G,D,G,_] -->
  <rect x="295" y="156" width="8" height="8" fill="#888888"/>
  <rect x="303" y="156" width="8" height="8" fill="#888888"/>
  <rect x="311" y="156" width="8" height="8" fill="#888888"/>
  <rect x="319" y="156" width="8" height="8" fill="#bbbbbb"/>
  <rect x="327" y="156" width="8" height="8" fill="#888888"/>
  <rect x="335" y="156" width="8" height="8" fill="#555555"/>
  <rect x="343" y="156" width="8" height="8" fill="#888888"/>

  <!-- Row 6  [_,G,G,G,G,G,_,_] -->
  <rect x="303" y="164" width="8" height="8" fill="#888888"/>
  <rect x="311" y="164" width="8" height="8" fill="#888888"/>
  <rect x="319" y="164" width="8" height="8" fill="#888888"/>
  <rect x="327" y="164" width="8" height="8" fill="#888888"/>
  <rect x="335" y="164" width="8" height="8" fill="#888888"/>

  <!-- Row 7  [_,_,G,L,G,_,_,_] -->
  <rect x="311" y="172" width="8" height="8" fill="#888888"/>
  <rect x="319" y="172" width="8" height="8" fill="#bbbbbb"/>
  <rect x="327" y="172" width="8" height="8" fill="#888888"/>

  <!-- ════════════════════════════════════════════════════ -->
  <!-- COINS ×3  (px=10)                                  -->
  <!--   Y=#ffdd00  O=#ff8800                             -->
  <!-- ════════════════════════════════════════════════════ -->

  <!-- Coin 1  origin (162, 158) -->
  <rect x="172" y="158" width="10" height="10" fill="#ffdd00"/>
  <rect x="182" y="158" width="10" height="10" fill="#ffdd00"/>
  <rect x="162" y="168" width="10" height="10" fill="#ffdd00"/>
  <rect x="172" y="168" width="10" height="10" fill="#ff8800"/>
  <rect x="182" y="168" width="10" height="10" fill="#ff8800"/>
  <rect x="192" y="168" width="10" height="10" fill="#ffdd00"/>
  <rect x="162" y="178" width="10" height="10" fill="#ffdd00"/>
  <rect x="172" y="178" width="10" height="10" fill="#ff8800"/>
  <rect x="182" y="178" width="10" height="10" fill="#ff8800"/>
  <rect x="192" y="178" width="10" height="10" fill="#ffdd00"/>
  <rect x="172" y="188" width="10" height="10" fill="#ffdd00"/>
  <rect x="182" y="188" width="10" height="10" fill="#ffdd00"/>

  <!-- Coin 2  origin (206, 158) -->
  <rect x="216" y="158" width="10" height="10" fill="#ffdd00"/>
  <rect x="226" y="158" width="10" height="10" fill="#ffdd00"/>
  <rect x="206" y="168" width="10" height="10" fill="#ffdd00"/>
  <rect x="216" y="168" width="10" height="10" fill="#ff8800"/>
  <rect x="226" y="168" width="10" height="10" fill="#ff8800"/>
  <rect x="236" y="168" width="10" height="10" fill="#ffdd00"/>
  <rect x="206" y="178" width="10" height="10" fill="#ffdd00"/>
  <rect x="216" y="178" width="10" height="10" fill="#ff8800"/>
  <rect x="226" y="178" width="10" height="10" fill="#ff8800"/>
  <rect x="236" y="178" width="10" height="10" fill="#ffdd00"/>
  <rect x="216" y="188" width="10" height="10" fill="#ffdd00"/>
  <rect x="226" y="188" width="10" height="10" fill="#ffdd00"/>

  <!-- Coin 3  origin (250, 158) -->
  <rect x="260" y="158" width="10" height="10" fill="#ffdd00"/>
  <rect x="270" y="158" width="10" height="10" fill="#ffdd00"/>
  <rect x="250" y="168" width="10" height="10" fill="#ffdd00"/>
  <rect x="260" y="168" width="10" height="10" fill="#ff8800"/>
  <rect x="270" y="168" width="10" height="10" fill="#ff8800"/>
  <rect x="280" y="168" width="10" height="10" fill="#ffdd00"/>
  <rect x="250" y="178" width="10" height="10" fill="#ffdd00"/>
  <rect x="260" y="178" width="10" height="10" fill="#ff8800"/>
  <rect x="270" y="178" width="10" height="10" fill="#ff8800"/>
  <rect x="280" y="178" width="10" height="10" fill="#ffdd00"/>
  <rect x="260" y="188" width="10" height="10" fill="#ffdd00"/>
  <rect x="270" y="188" width="10" height="10" fill="#ffdd00"/>

  <!-- ════════════════════════════════════════════════════ -->
  <!-- TITLE BANNER (bottom)                              -->
  <!-- ════════════════════════════════════════════════════ -->
  <rect x="0" y="248" width="400" height="52" fill="url(#banner)"/>
  <rect x="0" y="248" width="400" height="1"  fill="#3355aa" opacity="0.4"/>

  <!-- Title shadow -->
  <text x="202" y="276" text-anchor="middle" font-family="monospace" font-size="30" font-weight="bold"
        fill="#000" letter-spacing="6" opacity="0.55">ASTRO DASH</text>
  <!-- Title -->
  <text x="200" y="274" text-anchor="middle" font-family="monospace" font-size="30" font-weight="bold"
        fill="#ffffff" letter-spacing="6">ASTRO DASH</text>
  <!-- Subtitle -->
  <text x="200" y="292" text-anchor="middle" font-family="monospace" font-size="10"
        fill="#7799ff" letter-spacing="3">8-BIT ENDLESS RUNNER</text>
</svg>
